# xmcd
#
# Track frame offsets:
#	150
#	14499
#	39868
#	53075
#	66846
#	78245
#	94506
#	123745
#	135370
#	147305
#	165729
#	184139
#
# Disc length: 2635 seconds
#
# Revision: 1
# Processed by: cddbd v1.4PL0 Copyright (c) Steve Scherf et al.
# Submitted via: EasyCDDAExtractor 5.0.6
#
DISCID=9b0a490c
DTITLE=Helmo de Freitas - Carijó
DYEAR=2003
DGENRE=Gaúcha
TTITLE0=Casa e Família
TTITLE1=Arigó e Chiripá
TTITLE2=Piqueteiro
TTITLE3=Quando o Inverno Chega
TTITLE4=Meu Pangaré Bororó
TTITLE5=Biriva e Tropilha
TTITLE6=Cavalgadas
TTITLE7=Os Parceiros
TTITLE8=Rancheirinha de Cor
TTITLE9=Nações das Américas
TTITLE10=Celeiro
TTITLE11=Meu Amigo Joãozinho
EXTD=
EXTT0=
EXTT1=
EXTT2=
EXTT3=
EXTT4=
EXTT5=
EXTT6=
EXTT7=
EXTT8=
EXTT9=
EXTT10=
EXTT11=
PLAYORDER=
